<?xml version="1.0" standalone="no"?>
<!DOCTYPE svg PUBLIC "-//W3C//DTD SVG 20010904//EN"
 "http://www.w3.org/TR/2001/REC-SVG-20010904/DTD/svg10.dtd">
<svg version="1.0" xmlns="http://www.w3.org/2000/svg"
 width="346.000000pt" height="365.000000pt" viewBox="0 0 346.000000 365.000000"
 preserveAspectRatio="xMidYMid meet">

<g transform="translate(0.000000,365.000000) scale(0.100000,-0.100000)"
fill="#000000" stroke="none">
<path d="M1569 3429 c-108 -54 -191 -136 -241 -236 -20 -39 -39 -90 -43 -111
-5 -29 -16 -47 -43 -68 -74 -58 -122 -115 -156 -186 -30 -63 -42 -76 -81 -97
-58 -31 -170 -151 -220 -237 -21 -36 -46 -69 -56 -75 -10 -5 -21 -18 -24 -29
-4 -11 -33 -38 -64 -60 -32 -21 -77 -61 -101 -87 -72 -82 -140 -248 -140 -343
0 -35 -51 -97 -104 -125 -40 -22 -46 -35 -16 -35 11 0 23 -7 27 -16 4 -10 13
-14 27 -10 20 5 92 -7 102 -17 12 -12 -70 -158 -107 -192 -23 -20 -39 -38 -36
-41 2 -2 38 -10 80 -16 43 -7 77 -16 77 -20 0 -4 -16 -12 -35 -19 -19 -7 -35
-16 -35 -20 0 -3 20 -12 45 -19 25 -7 48 -16 51 -21 2 -5 -30 -26 -73 -47
l-77 -39 90 -16 c142 -26 152 -25 221 17 48 29 75 39 124 43 55 5 62 4 56 -10
-5 -13 -1 -17 16 -17 57 0 103 23 155 77 28 30 52 60 52 66 0 7 48 36 106 66
96 50 134 80 176 139 l15 21 148 -45 149 -46 130 4 c119 4 143 8 257 45 l126
39 46 -52 c35 -39 71 -65 147 -103 70 -36 104 -60 114 -79 28 -54 91 -108 139
-120 62 -16 80 -15 73 3 -4 12 4 15 42 15 59 -1 108 -18 156 -55 43 -33 72
-34 210 -9 l90 17 -72 36 c-39 20 -72 41 -72 46 0 6 21 17 48 26 l47 16 -45
23 c-25 13 -38 25 -30 26 8 1 48 8 88 14 l73 12 -48 47 c-32 31 -60 73 -80
119 l-32 72 27 6 c40 9 94 24 124 36 l28 10 -39 27 c-63 42 -87 79 -95 142
-17 139 -78 261 -174 348 -130 119 -174 167 -230 251 -66 99 -149 186 -211
221 -34 18 -48 34 -58 63 -18 55 -80 133 -146 186 -47 38 -57 52 -66 92 -34
154 -155 292 -318 364 -47 21 -60 23 -79 14 -22 -12 -105 -10 -135 4 -9 4 -47
-9 -100 -35z m309 -211 c28 -14 60 -43 80 -71 29 -40 36 -61 44 -130 10 -81
13 -87 61 -122 19 -13 21 -7 -28 -130 -8 -20 -8 -20 14 -1 16 14 24 17 32 9
14 -14 5 -72 -15 -99 -14 -18 -15 -18 -50 -1 -46 22 -58 21 -87 -2 -15 -12
-23 -29 -23 -52 -1 -23 -6 -34 -16 -34 -8 0 -20 -7 -27 -15 -10 -12 -15 -13
-32 -2 -19 11 -21 10 -21 -8 0 -25 -15 -26 -29 -2 -9 15 -10 15 -11 -5 0 -18
-6 -23 -25 -23 -18 0 -25 5 -25 20 0 11 -4 20 -10 20 -5 0 -10 -7 -10 -15 0
-23 -19 -18 -30 8 -5 12 -9 16 -9 10 -1 -18 -30 -16 -37 1 -3 8 -13 12 -26 8
-18 -4 -19 -1 -17 33 3 32 -1 41 -24 59 -25 18 -31 19 -60 7 -67 -27 -71 -26
-90 25 -15 42 -16 50 -3 63 14 13 18 12 37 -5 l21 -19 -17 40 c-41 96 -41 94
-1 127 33 27 36 34 36 81 0 97 86 221 170 246 57 17 176 6 228 -21z m-320
-712 c-3 -17 -8 -13 -30 24 -28 48 -51 100 -43 100 3 0 11 -15 19 -32 l14 -33
2 40 1 40 20 -59 c11 -32 19 -68 17 -80z m410 99 c-3 -27 -1 -32 9 -23 22 18
14 -5 -17 -51 -22 -34 -31 -41 -35 -29 -4 9 1 30 9 47 9 16 16 41 16 54 0 22
7 37 18 37 2 0 2 -16 0 -35z m35 10 c-7 -21 -13 -19 -13 6 0 11 4 18 10 14 5
-3 7 -12 3 -20z m-383 -157 c8 -21 9 -21 10 -3 1 18 4 17 26 -10 15 -17 24
-22 20 -12 -4 12 0 17 14 17 12 0 20 -7 20 -17 0 -15 2 -15 9 -4 13 21 41 22
41 3 1 -15 2 -15 11 1 5 9 17 17 24 17 8 0 15 -8 15 -17 1 -12 6 -8 17 12 15
27 17 28 24 10 8 -19 8 -19 15 3 3 12 13 22 20 22 25 0 15 -41 -17 -71 -17
-16 -28 -33 -25 -38 4 -5 -4 -17 -16 -25 -44 -31 -182 -15 -183 21 -1 19 -27
53 -40 53 -10 0 -15 10 -15 30 0 35 17 40 30 8z m-126 -306 c-1 -7 -2 -21 -2
-33 -2 -23 -20 -21 -36 3 -7 12 -6 21 4 32 14 18 36 16 34 -2z m535 4 c9 -11
10 -20 1 -35 -15 -29 -27 -26 -33 6 -8 43 9 57 32 29z m-609 -30 c0 -20 -6
-24 -35 -28 -26 -3 -34 -1 -31 8 3 7 0 15 -7 17 -14 5 29 25 56 26 11 1 17 -7
17 -23z m725 3 c5 -6 1 -9 -10 -10 -11 0 -14 -3 -7 -6 26 -10 11 -20 -23 -14
-20 3 -36 9 -35 14 0 4 0 14 0 23 0 12 7 14 33 9 17 -4 36 -11 42 -16z m-562
-18 c32 -13 35 -27 6 -34 -35 -9 -77 11 -74 36 3 29 2 28 23 18 9 -5 29 -14
45 -20z m365 -29 c-16 -7 -40 -9 -55 -6 l-26 7 23 19 c13 10 28 17 34 15 6 -2
18 3 26 11 13 13 15 12 21 -9 5 -20 0 -26 -23 -37z m-644 21 c-2 -29 -5 -33
-23 -33 -25 0 -44 23 -30 37 14 14 54 11 53 -4z m934 3 c10 -6 10 -11 1 -22
-23 -27 -68 -11 -56 20 6 14 34 15 55 2z m-382 -34 c10 -15 26 -22 48 -22 29
0 34 -4 44 -39 7 -21 12 -54 12 -74 0 -26 7 -41 25 -55 14 -11 25 -28 25 -38
0 -10 10 -28 22 -41 20 -22 21 -23 2 -23 -44 0 -65 14 -84 52 -15 31 -16 39
-5 34 20 -7 19 9 0 28 -40 40 -206 57 -318 32 -76 -17 -113 -40 -88 -55 8 -5
9 -15 2 -33 -14 -38 -39 -58 -72 -58 l-30 0 20 26 c12 15 21 33 21 40 0 7 12
25 26 39 20 20 25 33 22 57 -3 17 2 49 10 70 13 33 19 38 48 38 23 0 37 6 44
19 13 25 37 30 133 27 67 -2 80 -6 93 -24z m-375 -34 c16 -30 -13 -51 -61 -43
-21 3 -52 0 -77 -9 -37 -13 -43 -13 -43 -1 0 9 10 15 24 15 14 0 28 5 31 10 4
7 -2 9 -19 4 -16 -4 -26 -2 -26 4 0 13 64 27 79 17 6 -3 21 1 33 9 30 22 45
20 59 -6z m500 -15 c-10 -17 -10 -16 -11 3 0 23 13 41 18 25 2 -6 -1 -18 -7
-28z m81 23 c8 -8 26 -12 48 -9 23 3 42 -1 55 -12 19 -16 19 -16 -8 -10 -19 4
-26 2 -22 -5 3 -5 17 -10 31 -10 14 0 24 -6 24 -15 0 -12 -5 -12 -42 1 -27 9
-57 12 -83 8 -50 -7 -73 12 -55 45 12 24 34 27 52 7z m-542 -16 c0 -11 -4 -20
-10 -20 -5 0 -10 9 -10 20 0 11 5 20 10 20 6 0 10 -9 10 -20z m-235 0 c3 -6
-1 -13 -10 -16 -10 -4 -13 -13 -10 -24 5 -15 0 -19 -22 -22 -28 -3 -28 -4 -33
-81 -3 -44 -2 -81 3 -84 4 -2 7 5 7 16 0 22 33 30 45 11 3 -5 2 -10 -3 -10 -5
0 -12 -10 -15 -21 -4 -16 -11 -20 -24 -14 -10 3 -32 9 -49 12 l-30 5 2 72 c3
105 2 104 20 81 13 -18 14 -17 8 12 -7 35 9 51 32 32 13 -11 15 -10 12 6 -2
13 5 21 22 26 36 10 38 10 45 -1z m973 0 c6 0 12 -10 12 -21 0 -18 3 -19 15
-9 22 18 37 2 30 -33 -7 -31 -6 -31 9 -12 18 23 18 25 19 -82 l1 -67 -31 -7
-32 -6 -3 86 c-3 77 -5 86 -23 89 -41 7 -48 11 -36 26 9 10 8 15 -4 20 -24 9
-18 29 8 22 12 -3 28 -6 35 -6z m-1134 -46 c12 -5 13 -10 4 -29 -9 -20 -16
-23 -41 -18 -41 8 -32 -19 11 -32 34 -10 46 -45 15 -45 -26 0 -103 31 -103 42
0 13 20 50 38 71 15 17 47 22 76 11z m1333 -33 c13 -19 23 -39 23 -46 0 -13
-74 -45 -103 -45 -31 0 -19 35 15 45 43 14 51 39 10 33 -24 -3 -33 0 -41 18
-12 27 -1 34 44 31 21 -1 36 -11 52 -36z m-977 -8 c0 -5 -8 -18 -18 -30 -14
-17 -32 -23 -92 -28 -69 -7 -74 -6 -55 9 18 14 18 15 3 16 -10 0 -18 5 -18 10
0 7 13 8 35 4 19 -3 41 -2 48 4 22 18 97 29 97 15z m621 -15 c4 -6 22 -8 48
-3 27 4 41 3 41 -4 0 -6 -10 -11 -22 -11 -23 -1 -23 -1 2 -15 23 -14 20 -15
-53 -12 -63 2 -78 5 -83 20 -3 9 -10 17 -15 17 -5 0 -9 7 -9 16 0 14 7 15 42
10 23 -4 45 -12 49 -18z m-830 -21 c8 -29 3 -37 -21 -37 -14 0 -17 7 -15 33 4
41 3 39 17 35 7 -3 15 -16 19 -31z m228 2 c-19 -12 -24 -2 -8 17 9 11 14 13
17 4 3 -7 -2 -16 -9 -21z m506 -7 c-8 -8 -25 10 -25 26 0 13 2 13 14 -4 8 -10
13 -21 11 -22z m250 1 c2 -29 0 -33 -22 -33 -19 0 -24 4 -19 16 3 9 6 25 6 36
0 35 32 17 35 -19z m-795 -62 c0 -17 -18 -21 -24 -6 -3 9 0 15 9 15 8 0 15 -4
15 -9z m590 -13 c0 -19 -2 -20 -10 -8 -13 19 -13 30 0 30 6 0 10 -10 10 -22z
m103 2 c29 0 47 -5 50 -14 9 -22 -92 -30 -115 -9 -25 23 -24 47 1 33 11 -5 40
-10 64 -10z m-733 4 c0 -17 -46 -45 -65 -40 -11 3 -32 6 -47 6 -48 0 -22 29
30 33 26 2 55 4 65 5 9 1 17 -1 17 -4z m850 -24 c0 -31 -6 -36 -29 -21 -8 5
-10 14 -6 21 5 9 4 11 -3 6 -7 -4 -12 -3 -12 2 0 14 12 22 32 22 13 0 18 -8
18 -30z m870 -50 c0 -5 -4 -10 -10 -10 -5 0 -10 5 -10 10 0 6 5 10 10 10 6 0
10 -4 10 -10z m-92 -143 c16 -35 44 -79 61 -100 l32 -36 -28 -6 c-15 -4 -34
-9 -42 -11 -16 -5 -121 37 -121 48 0 4 11 10 25 14 18 4 24 11 21 23 -3 9 -1
23 4 31 7 11 10 11 10 2 0 -7 5 -10 11 -6 8 4 8 9 0 17 -10 10 -16 87 -7 87 2
0 17 -28 34 -63z m-2589 -81 c9 -8 35 -20 57 -25 28 -6 32 -9 14 -10 -14 -1
-38 -10 -55 -21 -22 -14 -40 -18 -65 -14 -62 10 -62 11 -20 66 22 29 41 58 41
63 1 6 4 -2 6 -16 2 -15 12 -34 22 -43z m98 -82 c-7 -44 18 -103 48 -109 11
-3 45 1 76 8 30 8 64 10 75 6 10 -4 33 -8 49 -10 17 -1 -1 -5 -38 -10 -71 -9
-110 -25 -165 -66 -29 -22 -38 -24 -90 -17 -96 12 -101 16 -51 47 48 29 89 62
89 71 0 3 -19 6 -43 6 -56 0 -64 9 -28 31 16 10 40 32 52 48 13 17 25 31 27
31 3 0 2 -16 -1 -36z m2408 -8 c9 -13 29 -29 45 -36 40 -17 28 -30 -26 -30
-24 0 -44 -3 -44 -7 0 -11 59 -57 100 -78 32 -16 33 -18 14 -26 -11 -4 -46
-10 -77 -14 -54 -7 -58 -6 -117 33 -50 34 -71 41 -127 47 -38 3 -77 10 -88 15
-19 7 -18 9 8 19 39 15 98 14 169 -5 l61 -15 28 33 c22 25 27 40 23 61 -7 34
10 36 31 3z m-2021 -97 c-7 -12 -74 -42 -80 -36 -2 2 3 13 12 25 16 23 82 33
68 11z m1661 -9 c10 -11 16 -22 14 -24 -7 -7 -79 25 -79 35 0 17 47 9 65 -11z"/>
<path d="M1560 2976 c0 -2 8 -10 18 -17 15 -13 16 -12 3 4 -13 16 -21 21 -21
13z"/>
<path d="M1906 2963 c-6 -14 -5 -15 5 -6 7 7 10 15 7 18 -3 3 -9 -2 -12 -12z"/>
<path d="M1850 2935 c-8 -9 -8 -15 -2 -15 12 0 26 19 19 26 -2 2 -10 -2 -17
-11z"/>
<path d="M1691 2895 c0 -11 6 -31 14 -45 12 -22 11 -27 -2 -42 -21 -24 -27
-23 -76 11 -23 15 -61 38 -85 50 -39 20 -44 20 -65 6 -13 -9 -16 -15 -7 -15
11 0 11 -3 2 -12 -7 -7 -12 -23 -12 -37 0 -24 1 -24 15 -5 13 18 14 17 15 -17
0 -62 41 -81 115 -55 14 5 11 0 -10 -18 l-30 -26 26 0 c14 0 47 14 75 32 61
39 99 40 146 5 20 -16 53 -30 75 -33 40 -6 39 -3 -14 34 -17 12 -17 13 2 7 57
-18 83 -17 105 5 17 17 21 29 16 51 -7 34 6 38 22 7 10 -20 11 -18 9 19 -3 42
-20 73 -40 73 -6 0 -48 -23 -94 -50 -73 -45 -84 -49 -102 -38 -25 15 -26 26
-6 52 8 11 15 29 15 40 0 18 -5 16 -30 -14 -25 -29 -32 -32 -39 -20 -5 8 -17
24 -25 35 l-15 20 0 -20z"/>
<path d="M1720 2731 c0 -4 -11 -20 -25 -35 -19 -21 -21 -26 -8 -26 13 0 14 -3
5 -12 -7 -7 -11 -21 -11 -32 1 -17 2 -18 6 -3 5 21 23 23 23 2 0 -23 70 -21
70 3 1 15 2 15 15 -2 17 -23 20 -4 5 25 -8 13 -7 19 0 19 6 0 -1 16 -16 35
-24 32 -64 48 -64 26z"/>
<path d="M1667 2074 c-4 -4 -7 -14 -7 -21 0 -11 18 -13 83 -11 65 2 82 6 82
18 0 12 -16 16 -75 18 -42 1 -79 0 -83 -4z"/>
<path d="M280 1696 c0 -2 8 -10 18 -17 15 -13 16 -12 3 4 -13 16 -21 21 -21
13z"/>
<path d="M2845 977 l-50 -12 -3 -53 -3 -53 38 7 c89 17 88 16 91 72 3 58 6 57
-73 39z"/>
<path d="M698 947 l-57 -10 -5 -71 c-4 -39 -12 -147 -20 -241 -8 -93 -11 -173
-7 -177 5 -6 108 25 119 36 3 4 42 413 42 449 0 15 -3 26 -7 26 -5 -1 -34 -6
-65 -12z"/>
<path d="M345 942 c-22 -1 -64 -7 -93 -13 -55 -11 -60 -16 -76 -81 -6 -25 -4
-28 19 -28 14 0 25 -1 25 -3 0 -1 -7 -85 -15 -186 -8 -102 -12 -187 -9 -190 2
-3 31 4 62 14 l57 20 10 64 c10 61 11 65 40 68 72 8 95 15 134 43 78 57 104
164 57 235 -29 44 -107 65 -211 57z m93 -146 c2 -21 -3 -47 -12 -60 -14 -23
-72 -53 -82 -44 -2 3 -1 37 2 76 7 76 14 84 64 72 20 -5 26 -13 28 -44z"/>
<path d="M1705 906 c-29 -7 -51 -18 -52 -27 -8 -65 -16 -89 -27 -89 -16 0 -58
-65 -49 -74 4 -3 18 -6 33 -6 l27 0 -5 -103 c-4 -98 -3 -104 20 -131 28 -33
74 -38 151 -17 l49 14 -7 36 c-4 20 -8 37 -9 38 -1 2 -16 -1 -32 -6 -47 -13
-54 -5 -54 62 0 93 6 107 46 107 29 0 36 5 49 36 8 20 15 38 15 40 0 2 -21 4
-46 4 l-47 0 7 65 c7 73 11 70 -69 51z"/>
<path d="M1097 823 c-16 -3 -31 -11 -34 -19 -4 -12 -8 -12 -26 1 -30 21 -106
19 -143 -4 -40 -24 -70 -73 -84 -136 -22 -98 24 -191 105 -214 34 -9 46 -8 80
9 37 19 41 19 52 4 11 -16 16 -16 58 0 36 14 45 22 40 36 -3 9 1 75 10 146 8
71 15 141 15 157 0 29 -5 30 -73 20z m-62 -97 c17 -12 18 -20 8 -90 -12 -85
-24 -106 -59 -106 -34 0 -57 50 -52 111 8 85 53 122 103 85z"/>
<path d="M2040 823 c0 -6 -21 -18 -46 -28 -84 -32 -132 -136 -105 -226 46
-154 284 -166 359 -19 46 92 21 204 -55 247 -43 24 -153 43 -153 26z m77 -98
c46 -32 49 -129 7 -176 -20 -22 -62 -25 -88 -6 -40 30 -38 145 5 180 26 21 48
22 76 2z"/>
<path d="M2395 816 l-50 -11 -21 -250 c-12 -138 -20 -252 -18 -254 2 -2 29 3
61 11 64 15 70 25 72 111 1 26 4 47 9 47 4 0 26 -7 48 -15 72 -25 135 5 178
85 51 93 42 224 -17 265 -27 19 -114 19 -147 0 -34 -20 -43 -18 -37 5 6 23 -3
24 -78 6z m181 -110 c32 -66 -7 -176 -62 -176 -46 0 -60 28 -54 104 5 56 10
71 30 87 39 29 68 24 86 -15z"/>
<path d="M3238 823 c-16 -3 -28 -11 -28 -19 0 -13 -4 -12 -30 1 -103 53 -215
-32 -227 -173 -4 -46 0 -65 19 -102 40 -77 128 -106 189 -61 27 20 28 20 34 1
8 -24 13 -24 64 -4 36 14 40 19 35 43 -3 15 1 88 10 163 9 76 16 142 16 148 0
10 -29 11 -82 3z m-53 -96 c16 -13 17 -20 6 -93 -12 -80 -26 -104 -63 -104
-32 0 -51 44 -46 110 6 87 51 125 103 87z"/>
<path d="M1263 807 c-27 -6 -43 -15 -43 -25 0 -8 18 -86 41 -174 l41 -160 -25
-57 -25 -58 46 -11 c26 -6 50 -8 54 -4 9 9 208 457 208 469 0 9 -99 37 -106
30 -2 -2 -21 -50 -43 -107 -27 -72 -40 -98 -44 -84 -5 17 -37 181 -37 190 0 6
-18 3 -67 -9z"/>
<path d="M2833 807 c-38 -7 -53 -15 -53 -26 0 -9 -7 -81 -15 -161 -8 -80 -15
-152 -15 -161 0 -15 7 -14 59 5 33 12 62 24 65 27 3 2 10 54 15 114 6 61 13
134 17 163 6 58 11 55 -73 39z"/>
</g>
</svg>
